<svg xmlns="http://www.w3.org/2000/svg" width="512" height="512" viewBox="0 0 512 512">
  <defs>
    <linearGradient id="g" x1="0" y1="0" x2="1" y2="1">
      <stop offset="0" stop-color="#f7e7a8"/>
      <stop offset="0.5" stop-color="#e3b341"/>
      <stop offset="1" stop-color="#b8860b"/>
    </linearGradient>
    <radialGradient id="glow" cx="50%" cy="42%" r="55%">
      <stop offset="0" stop-color="#e3b341" stop-opacity="0.35"/>
      <stop offset="1" stop-color="#e3b341" stop-opacity="0"/>
    </radialGradient>
  </defs>
  <rect width="512" height="512" rx="112" fill="#050505"/>
  <circle cx="256" cy="232" r="170" fill="url(#glow)"/>
  <circle cx="256" cy="232" r="132" fill="none" stroke="url(#g)" stroke-width="6" opacity="0.7"/>
  <g transform="translate(256,236) rotate(45)">
    <path fill="url(#g)" d="M0,-86 C10,-86 16,-70 16,-40 L16,-20 78,26 78,44 16,24 16,62 36,78 36,92 0,82 -36,92 -36,78 -16,62 -16,24 -78,44 -78,26 -16,-20 -16,-40 C-16,-70 -10,-86 0,-86 Z"/>
  </g>
  <text x="256" y="450" text-anchor="middle" font-family="Georgia, 'Times New Roman', serif" font-size="44" letter-spacing="10" fill="url(#g)" font-weight="700">WHITAKER</text>
</svg>
